<svg xmlns="http://www.w3.org/2000/svg" xmlns:xlink="http://www.w3.org/1999/xlink" version="1.1" x="0px" y="0px" width="100px" height="100px" viewBox="0 0 100 100" enable-background="new 0 0 100 100" xml:space="preserve">
<g id="Captions">
</g>
<g id="Your_Icon">
	<path d="M49.83,3.86c-25.402,0-45.998,20.597-45.998,46c0,25.405,20.596,46,45.998,46c25.406,0,46.002-20.595,46.002-46   C95.832,24.457,75.236,3.86,49.83,3.86z M49.83,85.86c-19.879,0-35.998-16.118-35.998-36c0-19.883,16.119-36,35.998-36   c19.885,0,36.002,16.117,36.002,36C85.832,69.742,69.715,85.86,49.83,85.86z"/>
	<circle cx="36.332" cy="38.721" r="6.667"/>
	<circle cx="63.332" cy="38.721" r="6.667"/>
	<path d="M49.832,74.388c12.334,0,22.332-8.32,22.332-18.583H27.498C27.498,66.067,37.498,74.388,49.832,74.388z"/>
</g>
</svg>