<svg xmlns="http://www.w3.org/2000/svg" xmlns:xlink="http://www.w3.org/1999/xlink" version="1.1" x="0px" y="0px" width="100px" height="100px" viewBox="0 0 100 100" enable-background="new 0 0 100 100" xml:space="preserve">
<g id="Captions">
</g>
<g id="Your_Icon">
	<path d="M49.999,4C24.597,4,4.001,24.597,4.001,50c0,25.405,20.596,46,45.998,46C75.405,96,96,75.405,96,50   C96,24.597,75.405,4,49.999,4z M49.999,86c-19.88,0-35.998-16.118-35.998-36c0-19.883,16.118-36,35.998-36   C69.884,14,86,30.117,86,50C86,69.882,69.884,86,49.999,86z"/>
	<circle cx="36.501" cy="38.86" r="6.667"/>
	<circle cx="63.501" cy="38.86" r="6.667"/>
	<path d="M67.169,60.222H32.832c-2.485,0-4.5,2.015-4.5,4.5s2.015,4.5,4.5,4.5h34.337c2.485,0,4.5-2.015,4.5-4.5   S69.654,60.222,67.169,60.222z"/>
</g>
</svg>